<?xml version="1.0" standalone="no"?>
<!DOCTYPE svg PUBLIC "-//W3C//DTD SVG 20010904//EN"
 "http://www.w3.org/TR/2001/REC-SVG-20010904/DTD/svg10.dtd">
<svg version="1.0" xmlns="http://www.w3.org/2000/svg"
 width="4200.000000pt" height="4200.000000pt" viewBox="0 0 4200.000000 4200.000000"
 preserveAspectRatio="xMidYMid meet">
<metadata>
Created by potrace 1.14, written by Peter Selinger 2001-2017
</metadata>
<g transform="translate(0.000000,4200.000000) scale(0.100000,-0.100000)"
fill="#000000" stroke="none">
<path d="M20165 39365 c-100 -27 -163 -56 -265 -123 -120 -78 -201 -143 -1075
-868 -1133 -939 -1714 -1420 -2000 -1658 -154 -128 -626 -520 -1050 -871 -423
-352 -981 -815 -1240 -1029 -258 -215 -573 -476 -700 -581 -1170 -971 -1861
-1544 -3765 -3126 -811 -674 -1981 -1645 -2600 -2159 -3812 -3165 -4333 -3600
-4559 -3805 -289 -261 -381 -411 -381 -619 0 -233 165 -419 425 -480 39 -9
120 -20 180 -25 61 -6 909 -13 1885 -17 976 -3 1777 -8 1780 -11 3 -3 6 -4296
7 -9541 2 -6994 6 -9557 14 -9612 42 -279 201 -458 474 -532 79 -21 93 -21
1280 -28 660 -4 3872 -11 7138 -14 l5937 -7 0 414 0 414 -1007 6 c-553 4
-1404 7 -1890 7 l-883 0 0 349 c0 381 7 455 55 559 73 158 195 249 405 300 56
13 210 16 1135 22 1034 6 1073 7 1166 28 311 67 545 187 730 373 232 234 352
530 366 899 15 402 -104 734 -352 985 -221 224 -495 349 -865 395 -56 6 -644
10 -1737 10 l-1653 0 0 -415 0 -414 1633 -3 1632 -3 78 -22 c201 -57 333 -189
383 -384 23 -86 23 -254 1 -338 -53 -198 -190 -332 -398 -388 -58 -15 -169
-17 -1129 -23 -1160 -7 -1123 -5 -1350 -66 -510 -138 -803 -483 -875 -1032
-11 -82 -15 -211 -15 -474 l0 -361 -1667 6 c-916 4 -3040 7 -4720 7 l-3053 0
-2 9647 -3 9648 -23 65 c-61 168 -181 282 -352 335 -97 29 -326 34 -1886 36
-838 1 -1524 4 -1523 8 0 6 266 227 3389 2822 4724 3925 11496 9545 12610
10465 441 364 457 377 472 368 19 -11 -21 23 1823 -1509 946 -786 1853 -1539
2015 -1674 162 -135 426 -354 585 -486 160 -133 466 -387 680 -565 609 -505
1933 -1605 2825 -2346 212 -176 599 -497 860 -714 626 -519 868 -721 1325
-1100 209 -173 616 -511 904 -750 288 -239 637 -529 775 -643 138 -115 375
-311 526 -437 151 -125 545 -452 875 -726 1059 -879 2691 -2232 2978 -2469
l279 -230 -469 -7 c-1599 -23 -1915 -29 -1977 -38 -301 -45 -479 -183 -568
-440 -49 -141 -49 -136 -58 -1900 -5 -910 -9 -2164 -9 -2786 -1 -622 -4 -1165
-7 -1207 l-7 -77 -5448 0 -5449 0 0 1530 0 1530 1710 0 1710 0 0 415 0 415
-2125 0 -2125 0 0 -2360 0 -2360 6008 2 6007 3 90 28 c119 37 186 77 266 156
80 80 139 194 170 326 20 86 21 127 29 1030 5 517 12 1825 16 2906 l6 1966
587 7 c322 3 786 11 1031 16 245 5 623 9 841 10 551 0 707 16 852 85 125 59
219 167 258 297 18 57 21 87 17 162 -6 103 -28 170 -84 255 -93 141 -172 213
-764 701 -1029 848 -10552 8753 -15155 12579 -676 563 -1268 1052 -1315 1087
-106 80 -233 147 -330 173 -88 25 -237 27 -315 6z"/>
<path d="M20167 34824 c-1 -1 -42 -5 -92 -8 -131 -10 -165 -13 -215 -21 -25
-4 -54 -9 -65 -11 -11 -1 -20 -3 -20 -4 0 -2 -35 -9 -75 -15 -19 -2 -70 -13
-112 -23 -43 -11 -78 -18 -78 -15 0 2 -10 -3 -22 -10 -13 -8 -30 -13 -38 -12
-8 1 -27 -5 -42 -12 -16 -7 -28 -11 -28 -7 0 4 -7 0 -17 -7 -9 -8 -19 -13 -22
-12 -8 4 -119 -33 -191 -62 -30 -12 -64 -26 -75 -30 -11 -4 -26 -9 -34 -11 -8
-1 -17 -8 -21 -14 -4 -7 -9 -11 -11 -10 -2 1 -17 -3 -32 -9 -16 -6 -33 -11
-38 -11 -5 0 -9 -4 -9 -10 0 -5 -3 -9 -7 -8 -5 1 -32 -10 -60 -25 -29 -15 -56
-27 -59 -26 -4 0 -10 -3 -13 -8 -3 -4 -15 -13 -26 -19 -90 -49 -122 -68 -136
-80 -8 -8 -21 -14 -27 -14 -7 0 -12 -4 -12 -8 0 -5 -20 -18 -44 -30 -24 -12
-49 -29 -56 -37 -7 -8 -18 -15 -25 -15 -8 0 -15 -3 -17 -7 -5 -13 -86 -73 -97
-73 -5 0 -11 -3 -13 -7 -3 -7 -78 -71 -132 -113 -35 -26 -370 -365 -406 -410
-19 -23 -49 -64 -67 -89 -35 -50 -60 -83 -83 -110 -18 -21 -30 -40 -67 -103
-16 -27 -31 -48 -35 -48 -5 0 -8 -5 -8 -12 0 -6 -8 -20 -17 -30 -20 -22 -49
-75 -134 -248 -34 -69 -68 -137 -76 -152 -26 -51 -87 -216 -139 -378 -75 -236
-133 -628 -134 -900 0 -110 25 -443 34 -458 3 -5 10 -40 16 -78 20 -128 116
-465 151 -527 5 -9 23 -51 39 -92 16 -41 43 -100 60 -131 16 -31 30 -63 30
-70 0 -8 4 -14 9 -14 4 0 20 -26 35 -57 30 -67 95 -186 104 -193 4 -3 13 -16
20 -29 8 -13 22 -38 32 -56 10 -18 37 -63 60 -101 24 -38 48 -78 54 -89 6 -11
21 -34 34 -52 12 -17 22 -35 22 -39 0 -4 6 -15 14 -23 8 -9 29 -43 47 -76 18
-33 41 -73 51 -90 16 -28 118 -234 138 -280 21 -49 69 -205 80 -260 6 -33 16
-80 21 -105 14 -71 27 -223 34 -375 9 -204 33 -452 49 -515 8 -30 12 -58 10
-61 -12 -19 107 -337 164 -440 52 -94 142 -229 153 -229 5 0 15 -12 23 -27 8
-16 50 -63 93 -105 131 -128 147 -145 171 -173 12 -15 22 -36 22 -46 0 -13 4
-18 12 -13 7 4 8 3 4 -5 -4 -6 -13 -8 -19 -5 -7 4 -9 4 -5 -1 4 -4 2 -15 -5
-23 -9 -13 -9 -14 1 -8 6 4 12 3 12 -3 0 -5 -6 -12 -12 -14 -8 -3 -9 -6 -2 -6
6 -1 9 -11 7 -25 -3 -13 5 -42 16 -64 13 -26 17 -43 10 -47 -7 -5 -6 -11 2
-21 15 -19 22 -74 8 -74 -6 0 -8 4 -5 8 3 5 -1 9 -9 9 -11 0 -12 -4 -4 -14 9
-10 8 -13 -2 -13 -12 0 -12 -2 0 -9 11 -7 11 -9 0 -14 -10 -4 -10 -6 -1 -6 6
-1 12 -13 12 -27 0 -14 -4 -23 -9 -19 -5 3 -13 1 -16 -5 -4 -6 -1 -9 6 -8 7 2
13 -6 14 -18 0 -20 28 -57 37 -49 3 3 5 -1 5 -9 0 -8 -7 -12 -16 -9 -11 4 -10
1 3 -9 10 -8 16 -21 14 -29 -3 -8 2 -22 10 -32 13 -15 14 -20 3 -26 -14 -9
-14 -20 0 -38 7 -7 6 -14 -1 -18 -8 -5 -8 -10 0 -20 8 -10 7 -16 -6 -23 -10
-5 -18 -19 -19 -30 -1 -13 3 -18 9 -15 6 4 5 0 -1 -9 -7 -8 -10 -18 -6 -21 3
-4 0 -7 -8 -7 -11 0 -11 -2 1 -10 12 -8 12 -10 1 -10 -8 0 -11 -3 -8 -7 4 -3
2 -13 -5 -20 -9 -11 -9 -17 3 -24 8 -5 9 -9 3 -9 -6 0 -11 -7 -11 -15 0 -8 5
-15 11 -15 7 0 7 -3 1 -8 -14 -10 -15 -52 -1 -52 6 0 4 -5 -4 -10 -13 -9 -13
-10 0 -10 13 0 13 -1 0 -10 -12 -8 -12 -10 -1 -10 8 0 11 -3 8 -7 -4 -3 -2
-12 4 -19 7 -8 7 -14 0 -19 -11 -6 4 -43 24 -57 6 -5 4 -8 -5 -8 -13 0 -13 -1
0 -10 13 -9 13 -10 0 -11 -10 0 -8 -3 5 -9 11 -5 14 -9 7 -9 -8 -1 -10 -6 -5
-13 11 -19 13 -39 3 -33 -5 3 -7 -8 -5 -25 2 -17 0 -28 -6 -24 -5 3 -7 9 -4
14 3 5 1 11 -4 15 -10 6 -7 -27 4 -45 3 -6 -1 -10 -9 -10 -9 0 -15 5 -14 11 2
6 -4 14 -12 16 -11 3 -12 2 -2 -4 9 -7 6 -13 -13 -23 -14 -7 -25 -16 -25 -20
0 -10 39 -10 45 1 4 5 -2 6 -12 2 -14 -5 -15 -3 -6 7 8 9 16 9 30 1 10 -6 13
-11 5 -11 -7 0 -11 -4 -7 -9 3 -5 1 -12 -5 -16 -6 -4 -7 -11 -4 -17 4 -7 2 -8
-5 -4 -6 4 -9 12 -6 17 4 5 2 9 -3 9 -17 0 -22 -13 -9 -29 10 -14 10 -14 -4
-4 -12 10 -18 10 -27 1 -9 -9 -10 -6 -7 11 3 16 -2 24 -21 31 -14 6 -23 14
-19 19 3 5 1 12 -5 16 -14 9 -12 -29 3 -44 10 -10 9 -11 -5 -6 -21 8 -64 -29
-73 -62 -4 -19 -9 -22 -19 -14 -15 12 -28 -7 -30 -41 -1 -9 -4 -20 -8 -24 -4
-3 -5 3 -3 15 4 20 1 22 -38 19 -36 -3 -42 -6 -41 -25 1 -13 -3 -20 -7 -17 -5
3 -6 10 -3 16 9 14 -136 3 -163 -11 -10 -5 -45 -13 -78 -18 -59 -8 -60 -8 -59
-40 0 -18 -3 -30 -7 -27 -4 2 -6 14 -4 26 4 20 2 21 -57 14 -33 -3 -66 -10
-72 -15 -6 -5 -37 -12 -68 -16 -32 -4 -58 -11 -58 -15 0 -4 -20 -11 -45 -14
-24 -4 -47 -11 -50 -17 -4 -5 -15 -9 -26 -9 -10 0 -19 -4 -19 -8 0 -5 -21 -13
-47 -18 -45 -8 -48 -11 -48 -41 0 -17 -3 -34 -6 -38 -4 -3 -5 8 -4 25 3 31 2
32 -32 25 -20 -3 -43 -10 -52 -15 -9 -4 -29 -12 -46 -17 -16 -5 -29 -14 -28
-19 1 -5 -15 -10 -34 -11 -20 -1 -39 -6 -42 -11 -3 -5 -19 -13 -36 -19 -27 -9
-30 -14 -30 -51 0 -22 -3 -43 -6 -46 -3 -4 -5 12 -4 34 1 26 -2 39 -9 37 -6
-3 -10 -10 -8 -16 1 -7 -1 -10 -5 -8 -11 7 -88 -39 -86 -50 1 -5 -8 -9 -20 -9
-13 1 -21 -4 -19 -12 1 -6 -1 -11 -5 -11 -23 4 -43 -2 -38 -11 3 -5 2 -10 -4
-10 -15 0 -51 -42 -45 -52 3 -5 0 -7 -8 -6 -7 2 -12 -3 -10 -10 1 -6 -4 -11
-10 -10 -7 2 -12 -3 -10 -10 1 -6 -4 -11 -10 -10 -7 2 -12 -3 -10 -10 1 -8 -2
-11 -7 -8 -15 10 -40 -22 -36 -44 2 -12 0 -18 -6 -15 -5 4 -7 11 -4 16 4 5 2
9 -4 9 -6 0 -13 -11 -17 -25 -3 -14 -10 -25 -14 -25 -5 0 -11 -13 -15 -30 -4
-16 -11 -30 -16 -30 -12 0 -12 -117 0 -125 5 -3 12 -19 16 -35 4 -17 11 -30
16 -30 5 0 9 -6 9 -13 0 -8 9 -22 20 -32 11 -10 20 -25 20 -33 0 -9 3 -12 7
-9 3 4 12 -2 20 -13 8 -11 23 -20 34 -20 10 0 18 -6 17 -12 -2 -7 3 -12 10
-10 6 1 11 -4 10 -10 -2 -7 3 -12 10 -10 6 1 11 -4 10 -10 -2 -7 3 -12 10 -10
6 1 11 -3 10 -9 -2 -6 13 -20 32 -31 19 -11 37 -24 38 -29 2 -5 13 -9 23 -9
11 0 17 -4 14 -10 -5 -9 15 -15 38 -11 4 0 6 -3 5 -8 -2 -5 -1 -8 2 -7 3 0 16
-9 29 -21 13 -12 32 -20 42 -18 12 2 19 -2 19 -11 0 -8 5 -12 10 -9 6 4 8 10
5 15 -3 5 -1 11 4 14 4 3 8 -2 7 -12 0 -9 2 -17 5 -17 4 0 16 -8 27 -18 12
-11 26 -16 31 -12 6 3 11 1 11 -4 0 -6 9 -11 19 -11 11 0 21 -4 23 -9 2 -6 14
-11 28 -13 14 -2 32 -8 40 -13 8 -5 17 -10 20 -11 29 -5 67 -19 77 -27 7 -5
22 -7 33 -4 11 3 18 0 17 -7 -1 -6 8 -10 21 -10 12 1 22 -3 22 -7 0 -5 4 -9 9
-9 5 0 7 14 6 30 -1 17 0 28 4 25 3 -4 6 -16 6 -28 1 -12 6 -21 13 -19 7 1 11
-3 10 -10 -2 -7 9 -12 27 -12 17 0 33 -5 36 -10 10 -13 42 2 33 15 -4 8 -3 9
5 5 6 -4 9 -11 7 -15 -9 -13 12 -34 28 -28 9 4 13 14 11 28 -2 12 -1 18 3 15
4 -4 7 -17 7 -29 0 -18 7 -22 42 -25 39 -3 42 -2 38 19 -2 12 -1 18 3 15 4 -4
7 -17 7 -29 0 -15 6 -22 20 -23 11 0 28 -4 38 -8 9 -5 28 -6 42 -4 14 3 23 1
22 -6 -1 -5 12 -11 28 -11 17 -1 38 -5 48 -9 9 -5 32 -6 50 -4 19 2 39 -1 44
-8 6 -6 24 -10 40 -9 15 1 31 -3 34 -8 8 -11 66 -20 134 -21 30 0 53 -6 58
-14 7 -11 11 -11 25 0 12 10 14 10 8 1 -7 -13 -2 -14 112 -17 26 0 53 -6 60
-13 20 -19 31 -16 27 8 -3 12 -1 18 3 15 4 -4 7 -13 7 -19 0 -7 14 -12 33 -11
17 0 32 -3 32 -7 0 -4 27 -6 60 -5 37 2 61 -1 63 -8 5 -13 125 -15 145 -3 8 5
11 4 10 -4 -2 -6 2 -13 9 -16 8 -3 11 3 8 18 -2 12 -1 18 3 15 4 -4 7 -13 7
-19 0 -8 29 -12 92 -12 50 0 91 -4 90 -9 -2 -10 101 -15 350 -19 96 -1 153 -6
153 -12 0 -7 117 -10 348 -10 212 1 346 5 345 11 -1 5 59 9 145 9 159 -1 185
2 175 18 -4 6 -1 7 8 1 20 -12 180 -12 185 1 3 6 43 10 102 9 53 0 102 2 107
5 6 3 42 6 80 6 43 0 69 4 68 10 -1 7 19 11 50 10 33 0 52 4 52 12 0 6 3 15 7
19 4 3 6 -3 3 -15 -2 -11 0 -21 6 -21 5 0 9 4 9 8 0 5 24 8 53 8 31 -1 51 3
50 9 -1 7 22 11 55 12 112 1 131 3 144 16 7 6 31 13 53 13 97 4 135 9 131 20
-3 7 10 10 36 9 24 -1 42 3 45 10 3 8 17 11 39 8 19 -3 43 -1 52 3 9 4 31 8
47 8 24 1 30 5 30 23 0 12 3 25 7 29 4 3 5 -3 3 -16 -4 -20 -2 -22 33 -16 20
4 47 7 60 8 12 1 21 7 18 13 -2 7 8 9 30 7 19 -2 42 -1 51 4 10 4 26 8 36 8
10 1 21 6 25 12 4 6 16 10 26 8 11 -1 25 0 30 4 6 4 20 7 31 7 11 1 19 6 18
11 -1 6 11 9 28 6 16 -2 29 0 29 6 0 6 9 9 20 7 20 -4 23 3 23 47 0 10 3 15 8
13 4 -3 6 -14 4 -25 -4 -22 19 -28 32 -7 4 6 16 12 26 13 56 3 68 5 63 13 -3
5 10 12 29 15 19 4 47 13 62 21 15 8 36 15 46 15 9 0 17 4 17 8 0 4 15 12 33
18 17 5 31 15 30 21 -2 7 6 10 17 8 11 -2 20 1 20 6 0 6 5 7 10 4 6 -3 10 -1
10 4 0 6 6 11 13 11 23 0 56 39 52 60 -2 11 0 22 4 25 5 2 7 -8 6 -25 -2 -29
-2 -29 24 -12 43 27 59 50 56 82 -1 17 1 32 5 35 4 2 6 -14 5 -37 -2 -34 0
-38 10 -25 7 9 15 14 18 10 4 -3 7 1 7 10 0 10 6 17 14 17 8 0 23 13 32 29 10
17 20 28 24 26 9 -6 28 9 32 25 4 20 22 39 31 33 4 -2 7 3 7 11 0 9 7 16 15
16 8 0 14 3 13 8 -2 11 14 46 26 54 14 10 14 176 0 186 -10 7 -26 38 -29 57 0
6 -6 9 -13 7 -7 -1 -11 4 -10 10 2 7 -3 12 -10 10 -6 -1 -11 4 -10 10 2 7 -3
12 -10 10 -6 -1 -11 3 -10 10 2 6 -7 17 -20 23 -13 7 -24 16 -25 21 -3 16 -31
44 -44 44 -7 0 -12 5 -11 12 2 6 -14 21 -35 33 -20 12 -34 25 -30 28 3 4 -6 7
-20 7 -16 0 -26 5 -25 13 2 7 -6 12 -19 11 -12 0 -20 3 -17 8 7 10 -57 38 -70
31 -5 -4 -6 -1 -2 5 9 14 -39 46 -59 38 -8 -3 -14 0 -12 6 1 6 -13 15 -32 20
-19 5 -44 16 -55 24 -11 8 -31 14 -43 14 -13 0 -23 4 -23 9 0 5 -18 12 -40 16
-23 4 -54 14 -71 22 -17 8 -41 13 -54 11 -14 -3 -23 -1 -22 6 1 6 -8 12 -19
14 -19 3 -21 -1 -19 -28 1 -17 0 -28 -4 -25 -3 4 -6 21 -6 38 0 29 -4 33 -40
42 -22 6 -45 13 -51 17 -5 4 -33 10 -61 14 l-51 6 3 -31 c1 -18 0 -29 -4 -26
-3 4 -6 21 -6 38 0 32 -1 32 -65 42 -36 6 -70 13 -77 18 -6 4 -39 10 -72 13
-58 7 -60 6 -56 -14 2 -12 0 -24 -4 -26 -4 -3 -7 9 -7 27 l1 32 -82 10 c-45 6
-85 13 -89 18 -4 4 -24 7 -44 7 -20 0 -40 4 -46 10 -5 5 -44 10 -86 12 -70 3
-78 5 -79 23 0 11 -3 29 -5 40 -2 11 -5 28 -6 38 -1 9 -6 17 -10 17 -5 0 -6
-11 -4 -25 3 -15 0 -24 -7 -22 -7 1 -11 -8 -11 -21 1 -21 -9 -22 -12 -1 -1 5
-2 10 -4 12 -6 8 -5 79 2 83 4 3 8 -11 8 -31 0 -20 4 -34 9 -31 11 7 6 53 -8
70 -6 7 -9 16 -6 19 3 4 2 4 -2 1 -5 -3 -8 -11 -8 -17 -1 -7 -6 -11 -12 -10
-12 3 -12 -15 1 -35 4 -7 5 -16 2 -19 -3 -4 -6 -1 -6 6 0 7 -4 10 -9 7 -5 -3
-15 2 -22 11 -10 12 -10 14 -1 9 8 -5 12 0 12 13 0 13 -7 21 -17 22 -15 0 -15
2 2 9 11 5 14 9 7 9 -6 1 -11 4 -10 9 5 17 -14 52 -25 45 -7 -4 -5 1 3 11 12
16 12 20 -1 30 -16 11 -35 51 -21 42 4 -3 8 6 8 19 0 13 -4 21 -8 19 -5 -3 -5
-11 -2 -17 4 -7 3 -9 -1 -4 -11 9 -14 48 -4 41 10 -6 5 23 -6 33 -4 4 -5 2 0
-6 6 -10 4 -12 -4 -7 -9 6 -8 13 6 29 10 11 13 17 7 14 -7 -4 -14 -1 -16 6 -7
19 -2 97 7 105 5 4 5 0 0 -8 -5 -8 -4 -12 0 -7 11 10 16 39 6 33 -10 -7 -7 32
4 41 4 5 5 3 1 -4 -3 -6 -2 -14 3 -17 5 -4 8 2 6 11 -2 10 -4 18 -5 18 -1 0
-3 8 -5 18 -2 9 1 15 6 11 5 -3 6 -10 3 -16 -4 -7 -2 -8 4 -4 6 4 9 13 5 22
-3 8 3 24 13 36 11 12 14 18 8 15 -7 -4 -15 0 -18 9 -3 8 -2 13 3 10 5 -3 12
1 15 10 9 24 7 31 -5 14 -9 -13 -10 -13 -6 0 2 8 0 23 -5 34 -7 13 -7 16 1 12
7 -5 11 2 11 18 0 14 6 26 13 26 9 0 9 2 -1 9 -7 4 -15 23 -17 42 -4 25 -2 29
4 14 5 -11 7 -23 5 -27 -3 -4 0 -9 5 -13 13 -8 3 45 -12 64 -9 11 -9 13 0 8 6
-4 15 -2 19 4 4 8 3 9 -4 5 -7 -4 -12 -1 -12 6 -1 8 -6 6 -15 -6 -8 -11 -15
-14 -15 -7 0 7 -4 10 -9 7 -5 -4 -7 4 -3 16 5 21 6 21 13 2 7 -17 8 -17 8 -1
1 12 5 16 14 11 9 -6 9 -5 0 8 -7 8 -9 19 -5 24 4 4 0 3 -9 -4 -21 -15 -32 -3
-16 17 10 14 10 14 -4 4 -11 -9 -19 -9 -26 -2 -8 8 -13 7 -18 -2 -5 -7 -4 -10
1 -6 5 3 9 -5 9 -19 -2 -29 -10 -40 -13 -16 -4 41 -10 57 -20 55 -7 -2 -9 4
-5 14 4 10 2 14 -4 10 -6 -4 -8 3 -5 20 3 17 1 24 -6 19 -6 -3 -9 1 -7 11 1
10 0 23 -4 28 -3 6 -7 21 -7 35 -1 14 -7 39 -12 57 -8 25 -8 31 3 27 8 -3 12
-14 10 -25 -2 -11 4 -28 14 -38 16 -16 16 -19 2 -28 -13 -8 -13 -13 -4 -25 7
-8 9 -19 5 -23 -4 -5 -2 -6 3 -2 6 3 12 -6 13 -20 1 -13 6 -32 12 -41 8 -13 9
-10 3 13 -4 17 -7 53 -7 81 0 38 -3 51 -13 47 -7 -3 -13 -1 -14 3 0 5 -3 29
-5 53 -4 40 -3 43 13 30 12 -10 15 -11 9 -1 -8 13 6 29 56 65 42 31 99 67 104
67 3 0 12 6 19 13 8 6 35 28 62 47 59 44 227 212 273 275 19 26 41 53 48 60 6
8 12 16 12 19 0 4 15 28 34 54 59 84 150 285 185 407 52 181 68 294 86 615 24
405 44 534 115 735 48 137 96 235 184 383 33 56 66 110 71 120 6 10 19 31 30
47 31 46 45 69 52 85 4 8 10 17 13 20 4 3 22 30 39 60 46 79 53 92 78 126 23
33 36 56 103 179 24 44 49 89 57 100 7 11 13 27 13 37 0 10 3 18 8 18 7 0 21
28 62 123 11 26 29 68 41 93 45 103 147 424 156 494 2 19 10 60 18 90 7 30 16
84 20 120 4 36 11 85 17 110 5 25 10 158 10 295 0 254 -14 435 -48 591 -8 39
-16 82 -18 95 -1 13 -5 31 -9 39 -3 8 -11 42 -18 75 -12 62 -72 258 -88 285
-5 9 -12 31 -16 50 -4 19 -16 54 -26 78 -11 23 -28 62 -39 87 -11 25 -20 47
-20 50 0 8 -43 99 -50 105 -3 3 -18 30 -33 60 -15 30 -41 80 -58 110 -18 30
-37 64 -43 75 -30 53 -171 261 -183 268 -7 4 -13 13 -13 19 0 10 -26 42 -106
131 -19 21 -34 42 -34 46 0 6 -319 321 -375 370 -11 10 -60 48 -110 85 -49 36
-97 72 -105 79 -26 23 -194 132 -225 147 -16 8 -35 20 -42 26 -18 17 -395 202
-428 210 -5 1 -27 9 -47 18 -21 9 -40 16 -43 16 -3 0 -19 7 -35 15 -17 9 -30
13 -30 10 0 -3 -9 -1 -21 5 -11 7 -33 14 -47 16 -15 3 -33 11 -41 17 -8 7 -16
11 -18 10 -1 -2 -4 -3 -5 -2 -2 1 -14 2 -28 4 -14 2 -78 17 -143 34 -65 16
-142 33 -170 36 -29 4 -54 8 -57 10 -3 2 -30 6 -60 10 -30 4 -66 9 -80 11 -92
12 -522 27 -533 18z m67 -706 c-6 -10 -4 -10 7 0 7 6 26 12 42 12 20 0 26 -4
21 -12 -6 -10 -4 -10 7 0 7 6 21 12 32 12 12 0 16 -4 11 -12 -6 -10 -4 -10 7
0 14 13 94 17 86 5 -3 -5 22 -6 55 -5 33 2 58 0 55 -5 -3 -4 22 -6 55 -5 33 2
58 0 55 -5 -3 -4 15 -6 40 -4 27 2 43 -1 40 -6 -3 -5 7 -7 25 -5 17 3 28 1 25
-4 -3 -5 16 -10 41 -12 26 -1 69 -9 96 -17 27 -8 60 -15 73 -15 13 0 22 -4 19
-9 -4 -5 4 -7 16 -3 16 4 19 2 13 -8 -5 -8 -4 -11 2 -7 13 8 186 -47 176 -56
-4 -5 0 -5 10 -1 10 3 28 -1 42 -10 13 -9 31 -16 40 -16 10 0 13 -5 9 -12 -4
-6 -3 -8 3 -5 6 4 24 0 39 -8 16 -8 35 -15 42 -15 7 0 11 -4 8 -8 -2 -4 4 -9
15 -9 22 -2 263 -135 336 -185 94 -65 198 -146 222 -172 14 -14 28 -26 33 -26
26 0 334 -339 405 -446 7 -11 39 -58 72 -106 32 -48 65 -101 72 -118 8 -16 17
-30 21 -30 5 0 8 -4 8 -9 0 -4 27 -66 61 -137 33 -71 64 -138 69 -149 8 -17
35 -99 85 -255 20 -63 51 -213 74 -360 30 -191 27 -495 -5 -695 -14 -82 -30
-170 -36 -195 -11 -48 -82 -271 -97 -305 -5 -11 -20 -45 -32 -75 -29 -68 -130
-273 -138 -280 -3 -3 -13 -18 -21 -35 -8 -16 -26 -48 -41 -70 -14 -22 -29 -47
-32 -55 -7 -16 -9 -18 -69 -113 -21 -32 -38 -61 -38 -63 0 -3 -18 -31 -39 -63
-22 -32 -52 -80 -67 -106 -15 -27 -35 -58 -45 -69 -11 -11 -19 -28 -19 -37 0
-10 -4 -19 -8 -21 -9 -3 -63 -95 -97 -163 -11 -22 -23 -42 -26 -45 -21 -18
-108 -230 -149 -365 -12 -38 -26 -84 -31 -102 -5 -17 -12 -49 -15 -69 -2 -21
-9 -54 -14 -74 -12 -48 -27 -221 -44 -510 -21 -341 -47 -470 -133 -644 -66
-133 -122 -205 -250 -315 -44 -38 -189 -119 -226 -127 -11 -2 -24 -9 -29 -16
-4 -7 -8 -9 -8 -5 0 5 -6 5 -12 0 -7 -4 -17 -9 -23 -10 -5 -1 -28 -7 -50 -13
-130 -35 -243 -51 -367 -54 -38 0 -68 -3 -68 -6 0 -8 -127 -3 -141 5 -7 5 -10
4 -7 -1 7 -11 -263 -11 -280 0 -7 4 -12 4 -12 -1 0 -10 -121 -10 -138 1 -7 4
-12 3 -12 -1 0 -5 -19 -7 -42 -6 -24 2 -81 5 -128 8 -82 4 -106 7 -180 19 -19
3 -52 8 -72 10 -20 3 -61 12 -90 21 -29 9 -64 18 -76 21 -13 3 -36 12 -50 22
-14 9 -29 16 -32 16 -11 -3 -128 57 -140 71 -7 8 -17 15 -23 15 -5 0 -22 12
-38 28 -15 15 -46 41 -67 57 -22 17 -48 45 -57 63 -10 17 -22 32 -26 32 -7 0
-69 86 -69 96 0 3 -9 18 -19 33 -29 40 -76 164 -99 261 -34 143 -44 236 -62
581 -10 185 -31 369 -50 444 -6 22 -12 49 -14 60 -8 41 -55 186 -81 250 -6 17
-18 46 -26 65 -7 19 -41 89 -74 155 -55 108 -81 154 -152 273 -12 21 -33 57
-47 82 -15 25 -44 72 -66 105 -22 33 -43 67 -47 75 -4 8 -44 76 -88 150 -44
74 -87 149 -95 165 -8 17 -18 32 -22 35 -6 5 -103 207 -127 265 -5 11 -15 36
-24 57 -64 148 -120 372 -147 584 -24 188 -7 540 36 744 8 36 21 99 30 140 9
41 22 90 30 109 8 18 14 42 14 52 0 11 4 27 9 37 17 34 41 93 41 102 0 5 16
43 35 84 19 42 35 81 35 86 0 6 5 10 10 10 6 0 10 7 10 16 0 15 53 117 75 144
7 8 14 20 16 25 13 35 84 148 95 152 8 3 14 14 14 24 0 10 5 19 10 19 6 0 13
8 17 18 4 9 18 31 32 48 14 16 42 50 61 74 40 50 305 317 365 368 51 43 254
182 265 182 5 0 10 4 12 8 9 21 226 134 240 126 6 -4 8 -3 5 2 -3 6 9 16 26
23 18 7 46 19 62 26 101 45 128 54 138 48 7 -3 9 -2 4 2 -9 10 124 55 169 58
18 1 31 4 29 7 -2 3 33 14 78 24 45 10 98 22 117 28 19 5 60 10 91 11 31 1 55
6 52 10 -3 5 22 7 55 5 33 -1 58 1 55 5 -3 5 26 7 65 5 39 -1 68 0 65 5 -2 4
3 7 12 7 10 0 14 -5 9 -12z m-1406 -7419 c-3 -8 -7 -3 -11 10 -4 17 -3 21 5
13 5 -5 8 -16 6 -23z m-5 -49 c-7 -28 -13 -25 -13 6 0 14 4 23 9 20 5 -3 7
-15 4 -26z m14 -35 c0 -8 -4 -12 -9 -9 -5 3 -6 10 -3 15 9 13 12 11 12 -6z
m568 -90 c55 -8 145 -22 200 -30 120 -17 229 -33 270 -40 17 -3 59 -9 95 -15
36 -5 110 -17 165 -25 55 -9 145 -23 200 -30 55 -8 145 -21 200 -30 55 -8 134
-20 175 -26 41 -5 86 -12 100 -15 31 -5 157 -25 190 -29 14 -2 59 -9 100 -15
41 -6 86 -13 100 -15 165 -21 225 -37 234 -62 10 -26 -4 -53 -30 -59 -26 -7
-39 -5 -209 20 -55 8 -134 20 -175 26 -41 6 -88 13 -105 16 -16 3 -64 9 -105
15 -41 5 -86 12 -100 15 -29 5 -154 24 -190 29 -14 2 -56 8 -95 15 -69 11
-155 24 -370 55 -60 9 -154 22 -207 30 -54 8 -142 22 -195 30 -141 20 -234 35
-268 41 -16 3 -61 9 -98 14 -104 13 -144 51 -100 95 18 19 33 18 218 -10z
m2245 -1 c0 -8 -4 -12 -10 -9 -5 3 -10 10 -10 16 0 5 5 9 10 9 6 0 10 -7 10
-16z m-2793 -80 c-3 -3 -12 -4 -19 -1 -8 3 -5 6 6 6 11 1 17 -2 13 -5z m-5
-40 c-3 -18 -1 -25 6 -20 6 3 13 2 16 -3 10 -15 -10 -22 -21 -8 -17 21 -22 57
-8 57 8 0 10 -9 7 -26z m2415 10 c-3 -3 -12 -4 -19 -1 -8 3 -5 6 6 6 11 1 17
-2 13 -5z m446 -61 c-5 -12 -7 -12 -14 -1 -5 7 -9 19 -9 27 0 11 3 11 14 1 8
-6 12 -18 9 -27z m-2868 8 c3 -5 2 -12 -3 -15 -5 -3 -9 1 -9 9 0 17 3 19 12 6z
m10 -31 c-3 -5 -12 -10 -18 -10 -7 0 -6 4 3 10 19 12 23 12 15 0z m500 -431
c44 -6 121 -17 170 -24 50 -8 137 -21 195 -29 58 -9 137 -21 175 -27 39 -6 81
-12 95 -14 21 -3 125 -19 195 -30 11 -2 54 -8 95 -14 41 -6 89 -13 105 -16 40
-7 149 -23 265 -40 52 -7 129 -19 170 -25 41 -6 86 -13 100 -15 14 -2 59 -9
100 -15 41 -6 86 -13 100 -15 14 -2 59 -8 100 -14 41 -6 92 -14 114 -17 77
-11 113 -37 101 -73 -12 -37 -36 -37 -285 -2 -36 6 -78 12 -95 15 -16 3 -61
10 -100 16 -38 5 -83 12 -100 15 -35 6 -129 20 -265 40 -98 14 -261 39 -365
54 -33 5 -76 12 -95 14 -106 15 -191 28 -212 33 -13 2 -54 9 -93 14 -38 6 -83
12 -100 15 -36 6 -157 24 -435 65 -41 6 -85 18 -98 26 -46 30 -5 87 57 78 14
-2 62 -8 106 -15z m2395 -249 c0 -5 -2 -10 -4 -10 -3 0 -8 5 -11 10 -3 6 -1
10 4 10 6 0 11 -4 11 -10z m13 -55 c4 -8 3 -16 -1 -19 -4 -3 -9 4 -9 15 -2 23
3 25 10 4z m47 -134 c7 -15 7 -22 -2 -27 -7 -4 -10 -4 -6 1 4 4 3 16 -3 26 -5
11 -7 19 -5 19 3 0 10 -9 16 -19z m-3053 -16 c0 -6 -6 -12 -12 -12 -6 0 -12 6
-12 12 0 6 6 12 12 12 6 0 12 -6 12 -12z m3170 -70 c0 -8 -4 -12 -9 -9 -5 3
-6 10 -3 15 9 13 12 11 12 -6z m-3561 -70 c-1 -13 -4 -27 -7 -30 -5 -4 -4 41
0 53 4 10 8 -2 7 -23z m-90 -10 c-1 -8 -5 -17 -8 -21 -5 -4 -4 16 1 34 3 9 9
-1 7 -13z m1109 -30 c17 -3 62 -10 100 -15 39 -6 84 -12 100 -15 38 -6 149
-23 240 -36 39 -5 84 -12 100 -15 17 -2 62 -9 100 -15 39 -5 84 -12 100 -15
17 -3 60 -9 96 -14 36 -5 79 -12 95 -15 16 -3 63 -10 104 -16 41 -6 86 -12
100 -14 14 -2 57 -9 95 -15 39 -5 84 -12 100 -15 17 -3 62 -10 100 -15 39 -6
113 -17 165 -25 52 -8 129 -20 170 -26 90 -13 96 -14 184 -28 85 -12 116 -36
98 -76 -10 -21 -28 -29 -62 -27 -15 1 -169 23 -195 28 -16 3 -57 9 -90 14 -33
5 -105 15 -160 24 -157 23 -311 46 -415 61 -119 17 -226 33 -265 40 -16 3 -59
10 -95 15 -36 5 -76 12 -90 14 -14 3 -61 10 -105 16 -44 7 -123 18 -175 26
-52 8 -140 21 -195 29 -367 53 -377 55 -397 73 -32 28 -19 65 27 74 20 4 113
-5 170 -17z m-1390 -54 c3 -5 2 -12 -3 -15 -5 -3 -9 1 -9 9 0 17 3 19 12 6z
m-129 -26 c-1 -13 -4 -27 -7 -30 -5 -4 -4 41 0 53 4 10 8 -2 7 -23z m4921 10
c0 -8 -4 -12 -9 -9 -5 3 -6 10 -3 15 9 13 12 11 12 -6z m-5031 -50 c-1 -13 -4
-27 -7 -30 -5 -4 -4 41 0 53 4 10 8 -2 7 -23z m5249 -14 c3 -5 2 -12 -3 -15
-5 -3 -9 1 -9 9 0 17 3 19 12 6z m-5369 -26 c-1 -13 -4 -27 -7 -30 -5 -4 -4
41 0 53 4 10 8 -2 7 -23z m-70 -20 c-1 -13 -4 -27 -7 -30 -5 -4 -4 41 0 53 4
10 8 -2 7 -23z m5450 10 c-1 -8 -5 -17 -8 -21 -5 -4 -4 16 1 34 3 9 9 -1 7
-13z m90 -29 c-2 -38 -12 -39 -12 -1 0 18 3 32 7 30 3 -3 5 -15 5 -29z m49
-31 c1 -19 -1 -32 -4 -29 -3 3 -6 21 -6 39 -1 19 1 32 4 29 3 -3 6 -21 6 -39z
m90 -40 c1 -19 -1 -32 -4 -29 -3 3 -6 21 -6 39 -1 19 1 32 4 29 3 -3 6 -21 6
-39z m-5820 -4 c3 -5 2 -12 -3 -15 -5 -3 -9 1 -9 9 0 17 3 19 12 6z m5890 -36
c1 -19 -1 -32 -4 -29 -3 3 -6 21 -6 39 -1 19 1 32 4 29 3 -3 6 -21 6 -39z
m-5969 10 c-1 -13 -4 -27 -7 -30 -5 -4 -4 41 0 53 4 10 8 -2 7 -23z m6011 -70
c0 -8 -4 -12 -9 -9 -5 3 -6 10 -3 15 9 13 12 11 12 -6z m108 -49 c0 -25 -3
-47 -5 -50 -3 -3 -5 19 -5 49 0 29 2 52 5 50 3 -2 6 -24 5 -49z m-6200 25 c3
-5 2 -12 -3 -15 -5 -3 -9 1 -9 9 0 17 3 19 12 6z m-70 -35 c0 -19 -3 -37 -6
-40 -4 -5 -4 62 0 72 4 10 7 -4 6 -32z m6331 -70 c0 -14 -3 -23 -7 -20 -6 3
-6 22 0 42 3 10 7 -2 7 -22z m-6521 -190 c0 -52 -2 -93 -5 -91 -5 3 -5 173 -1
183 5 10 6 -10 6 -92z m30 15 c3 -5 2 -12 -3 -15 -5 -3 -9 1 -9 9 0 17 3 19
12 6z m61 -185 c-2 -38 -12 -39 -12 -1 0 18 3 32 7 30 3 -3 5 -15 5 -29z m-49
9 c0 -8 -4 -12 -9 -9 -5 3 -6 10 -3 15 9 13 12 11 12 -6z m6480 -20 c0 -8 -4
-12 -9 -9 -5 3 -6 10 -3 15 9 13 12 11 12 -6z m-260 -220 c0 -8 -4 -12 -9 -9
-5 3 -6 10 -3 15 9 13 12 11 12 -6z m-5741 -81 c1 -9 0 -13 -4 -10 -3 4 -7 14
-8 22 -1 9 0 13 4 10 3 -4 7 -14 8 -22z m5191 -159 c0 -8 -4 -12 -9 -9 -5 3
-6 10 -3 15 9 13 12 11 12 -6z m-232 -44 c3 -5 2 -12 -3 -15 -5 -3 -9 1 -9 9
0 17 3 19 12 6z m-370 -80 c3 -5 2 -12 -3 -15 -5 -3 -9 1 -9 9 0 17 3 19 12 6z
m-890 -100 c3 -5 2 -12 -3 -15 -5 -3 -9 1 -9 9 0 17 3 19 12 6z"/>
<path d="M19254 32160 c-78 -18 -131 -55 -249 -175 -151 -153 -177 -170 -270
-170 -66 0 -77 4 -195 62 -171 86 -249 99 -332 57 -72 -37 -112 -136 -89 -222
26 -94 133 -219 267 -309 142 -97 257 -136 399 -135 103 0 160 13 303 72 141
58 159 62 205 48 40 -12 53 -24 257 -232 110 -113 197 -184 268 -220 47 -24
447 -37 776 -25 l248 8 57 32 c79 45 189 140 311 270 179 191 201 199 368 128
53 -23 126 -50 162 -61 176 -50 364 -12 513 104 85 67 117 111 119 167 0 25 2
58 2 72 1 15 20 46 44 74 36 41 42 54 42 93 0 39 -5 49 -37 79 -34 33 -40 35
-89 31 -33 -3 -51 -1 -47 5 4 6 -17 8 -53 5 -42 -3 -85 -17 -149 -48 -171 -81
-202 -73 -380 100 -153 148 -173 163 -246 184 -118 35 -239 -12 -327 -126 -22
-29 -82 -125 -133 -213 -115 -199 -159 -266 -223 -334 -123 -130 -266 -192
-436 -190 -157 2 -292 62 -413 184 -89 89 -123 141 -275 415 -40 72 -110 166
-149 201 -68 59 -171 88 -249 69z m94 -177 c11 -16 23 -39 26 -53 6 -22 4 -21
-14 8 -20 29 -41 48 -24 21 4 -7 -4 -10 -24 -8 -16 2 -38 -3 -47 -11 -14 -12
-13 -5 6 27 28 50 50 54 77 16z m2065 -5 c28 -38 47 -73 25 -47 -7 9 -27 17
-43 17 -16 0 -36 -8 -43 -17 -11 -14 -11 -13 -2 7 7 13 9 26 6 30 -3 3 -6 1
-6 -4 0 -5 -9 -20 -20 -34 l-20 -25 10 27 c14 42 41 78 56 78 7 0 24 -15 37
-32z m-3078 -198 c19 -18 32 -37 29 -42 -3 -5 0 -7 8 -6 7 2 12 -4 10 -12 -2
-8 0 -12 3 -8 4 4 35 -18 69 -48 75 -69 148 -116 204 -134 23 -7 42 -16 42
-19 0 -12 237 2 248 15 4 4 2 4 -5 0 -6 -3 -14 -3 -16 2 -3 4 6 13 20 19 21
10 23 10 13 -3 -8 -9 -9 -14 -2 -14 6 0 16 8 21 18 6 9 11 12 11 5 0 -17 -62
-63 -75 -55 -16 10 -36 11 -29 1 3 -5 10 -7 15 -4 5 4 9 1 9 -6 0 -6 -10 -10
-23 -7 -13 2 -28 -1 -34 -8 -10 -10 -35 -11 -116 -5 -10 0 -16 5 -13 10 4 5
-3 7 -14 4 -11 -3 -28 -2 -37 2 -10 5 -24 9 -31 11 -58 12 -270 161 -264 185
1 6 -2 8 -6 5 -5 -3 -34 20 -63 51 -32 33 -48 58 -41 61 7 2 10 7 7 12 -13 21
29 0 60 -30z m4020 24 c12 -12 13 -19 4 -30 -6 -8 -16 -11 -22 -7 -5 3 -7 1
-4 -4 9 -15 -32 -65 -46 -56 -7 3 -9 2 -4 -2 10 -11 -33 -56 -46 -48 -6 3 -7
1 -3 -5 3 -5 -19 -33 -50 -60 -69 -61 -173 -116 -208 -110 -14 3 -23 1 -20 -3
5 -9 -4 -11 -61 -13 -60 -3 -169 38 -161 60 2 6 -1 17 -7 24 -8 9 -5 8 10 -1
14 -8 18 -16 12 -20 -8 -4 -8 -9 -1 -13 6 -3 13 -2 17 3 4 7 15 7 31 1 14 -6
41 -10 60 -10 19 0 34 -5 34 -11 0 -5 -5 -7 -12 -3 -7 5 -8 3 -3 -6 6 -10 11
-10 20 3 8 11 27 17 53 17 22 0 44 5 47 11 4 6 13 8 21 5 8 -3 14 -2 14 2 0 4
14 14 32 21 18 8 73 55 122 105 50 50 94 90 98 89 4 -2 7 1 6 6 -3 8 39 71 47
71 2 0 11 -7 20 -16z m-660 -233 c-3 -5 2 -17 11 -25 8 -9 11 -16 5 -16 -13 0
-32 35 -24 44 9 9 15 7 8 -3z m-2110 -49 c15 -23 23 -46 19 -55 -3 -10 -1 -17
5 -17 6 0 11 6 11 13 0 6 10 -4 21 -23 12 -19 26 -38 32 -41 5 -4 6 -12 2 -19
-5 -8 -4 -11 3 -6 5 3 25 -13 43 -36 19 -24 42 -49 51 -56 10 -7 15 -18 12
-24 -4 -6 -2 -8 4 -4 6 3 14 1 19 -7 11 -17 84 -74 120 -92 l28 -15 -40 0
c-32 0 -50 8 -90 40 -91 74 -181 181 -169 201 4 8 3 9 -4 5 -15 -9 -94 113
-87 133 3 7 0 20 -6 27 -6 8 -9 14 -5 14 3 0 17 -17 31 -38z m1542 -8 c3 -9 2
-19 -3 -23 -5 -3 -15 -19 -22 -34 -21 -48 -92 -138 -104 -131 -7 5 -8 2 -3 -5
8 -15 -31 -59 -118 -132 -46 -39 -66 -49 -94 -49 l-36 0 44 31 c94 67 236 221
290 316 26 46 36 52 46 27z"/>
<path d="M21370 31965 c0 -7 30 -13 34 -7 3 4 -4 9 -15 9 -10 1 -19 0 -19 -2z"/>
<path d="M18830 31490 c-9 -6 -10 -10 -3 -10 6 0 15 5 18 10 8 12 4 12 -15 0z"/>
<path d="M21776 31501 c8 -8 43 -8 38 0 -2 4 -13 7 -24 6 -10 -1 -17 -3 -14
-6z"/>
<path d="M19570 31511 c0 -5 7 -15 17 -22 15 -13 15 -12 4 9 -12 23 -21 28
-21 13z"/>
<path d="M21101 31502 c-6 -12 -11 -27 -11 -34 0 -7 7 0 15 16 9 16 13 31 11
33 -2 3 -9 -4 -15 -15z"/>
<path d="M21073 31453 c4 -3 -3 -18 -15 -32 l-23 -26 27 24 c24 21 29 41 11
41 -4 0 -3 -3 0 -7z"/>
<path d="M18826 26507 c3 -10 9 -15 12 -12 3 3 0 11 -7 18 -10 9 -11 8 -5 -6z"/>
<path d="M21760 26159 c0 -5 5 -7 10 -4 6 3 10 8 10 11 0 2 -4 4 -10 4 -5 0
-10 -5 -10 -11z"/>
<path d="M18802 25595 c4 -4 3 -14 -3 -21 -7 -8 -7 -14 1 -19 5 -3 10 -5 11
-3 6 27 5 39 -4 45 -7 3 -9 3 -5 -2z"/>
<path d="M21857 25559 c7 -7 15 -10 18 -7 3 3 -2 9 -12 12 -14 6 -15 5 -6 -5z"/>
<path d="M18760 25549 c0 -5 5 -7 10 -4 6 3 10 8 10 11 0 2 -4 4 -10 4 -5 0
-10 -5 -10 -11z"/>
<path d="M18743 25530 c1 -14 11 -30 22 -36 11 -6 19 -16 18 -22 -4 -17 2 -15
18 5 8 10 9 14 2 10 -20 -12 -26 13 -8 33 16 17 16 18 -2 15 -10 -2 -22 -4
-26 -4 -5 -1 -5 -5 -2 -11 3 -5 4 -10 0 -10 -3 0 -10 10 -15 23 -10 22 -10 22
-7 -3z"/>
<path d="M21860 25529 c0 -5 5 -7 10 -4 6 3 10 8 10 11 0 2 -4 4 -10 4 -5 0
-10 -5 -10 -11z"/>
<path d="M9990 19930 l0 -2360 2015 0 2015 0 0 415 0 415 -1600 0 -1600 0 0
1945 0 1945 -415 0 -415 0 0 -2360z"/>
<path d="M14990 19930 l0 -2360 415 0 415 0 0 2360 0 2360 -415 0 -415 0 0
-2360z"/>
<path d="M17010 19930 l0 -2360 415 0 415 0 0 1945 0 1945 1605 0 1605 0 0
415 0 415 -2020 0 -2020 0 0 -2360z"/>
<path d="M23380 19970 l0 -350 1320 0 1320 0 0 350 0 350 -1320 0 -1320 0 0
-350z"/>
<path d="M18440 19880 l0 -360 1205 0 1205 0 0 360 0 360 -1205 0 -1205 0 0
-360z"/>
<path d="M25563 15591 c-69 -26 -132 -70 -188 -134 -27 -30 -625 -1006 -1407
-2297 -748 -1235 -1371 -2264 -1385 -2287 l-25 -43 479 0 478 0 1075 1804
c591 992 1078 1801 1082 1797 5 -4 242 -396 528 -871 l520 -865 -727 -3 -728
-3 -190 -324 c-104 -179 -191 -330 -193 -335 -3 -7 376 -10 1120 -10 l1123 -1
355 -594 355 -594 503 -1 c306 0 502 4 500 9 -1 5 -626 1036 -1388 2291 -1515
2497 -1440 2381 -1575 2446 -52 25 -73 29 -160 32 -79 2 -111 -2 -152 -17z"/>
<path d="M17070 13180 l0 -2370 415 0 415 0 0 2370 0 2370 -415 0 -415 0 0
-2370z"/>
<path d="M20900 14575 l0 -975 -1200 0 -1200 0 0 -370 0 -370 1200 0 1200 0 0
-1025 0 -1025 415 0 415 0 0 2370 0 2370 -415 0 -415 0 0 -975z"/>
<path d="M30900 15535 c-693 -84 -1258 -419 -1613 -955 -176 -266 -298 -594
-354 -950 -26 -166 -26 -615 1 -785 23 -152 83 -392 131 -521 78 -211 221
-469 358 -644 73 -93 227 -250 332 -338 324 -272 759 -454 1197 -501 63 -7
576 -11 1473 -11 l1375 0 0 415 0 414 -1397 4 c-1378 3 -1399 3 -1493 24 -448
99 -795 364 -993 759 -222 442 -230 1016 -21 1463 83 177 218 354 360 473 189
157 382 250 646 311 92 21 104 21 1496 24 l1402 4 0 414 0 415 -1397 -1
c-1068 -1 -1423 -4 -1503 -14z"/>
<path d="M34790 13190 l0 -2360 420 0 420 0 0 2360 0 2360 -420 0 -420 0 0
-2360z"/>
<path d="M37438 14662 c-639 -488 -1218 -929 -1285 -980 -141 -108 -205 -175
-242 -252 -24 -50 -26 -66 -26 -185 0 -122 2 -133 27 -181 40 -77 68 -105 217
-221 75 -59 150 -118 167 -132 17 -15 42 -35 57 -46 61 -47 132 -102 167 -130
21 -16 82 -64 135 -105 54 -41 146 -113 205 -160 60 -47 130 -102 157 -122 26
-21 129 -101 228 -179 99 -77 204 -159 234 -182 29 -23 68 -53 86 -67 17 -14
51 -40 75 -57 41 -31 213 -166 290 -228 21 -16 60 -47 86 -67 70 -54 394 -307
425 -332 15 -11 50 -39 79 -61 29 -22 81 -64 117 -92 l65 -53 641 0 c377 0
637 4 631 9 -5 5 -720 543 -1589 1196 -869 653 -1586 1193 -1593 1200 -11 10
270 222 1525 1150 846 626 1545 1144 1553 1151 12 12 -86 14 -627 14 l-641 0
-1164 -888z"/>
<path d="M25143 9064 c-1154 -140 -1989 -960 -2119 -2080 -22 -189 -15 -538
15 -710 45 -263 114 -479 226 -709 375 -768 1097 -1268 1959 -1356 149 -15
492 -6 631 15 252 40 494 118 725 232 735 364 1222 1056 1342 1904 20 144 17
546 -5 690 -42 268 -109 486 -221 715 -115 233 -228 395 -401 574 -395 409
-906 656 -1504 726 -156 18 -494 18 -648 -1z m533 -835 c301 -29 555 -114 776
-261 116 -76 303 -262 376 -373 233 -352 319 -822 237 -1296 -98 -563 -449
-983 -979 -1168 -262 -92 -641 -120 -952 -71 -478 76 -871 345 -1089 745 -252
463 -268 1121 -39 1604 167 352 464 610 849 736 244 80 546 111 821 84z"/>
<path d="M29320 8605 l0 -414 1633 -3 1632 -3 78 -22 c201 -57 333 -189 383
-384 23 -86 23 -254 1 -338 -53 -198 -190 -332 -398 -388 -58 -15 -169 -17
-1129 -23 -1160 -7 -1123 -5 -1350 -66 -510 -138 -803 -483 -875 -1032 -12
-92 -15 -258 -15 -893 l0 -779 2285 0 2285 0 0 415 0 415 -1890 0 -1890 0 0
354 c0 386 7 459 55 564 73 158 195 249 405 300 56 13 210 16 1135 22 1034 6
1073 7 1166 28 311 67 545 187 730 373 232 234 352 530 366 899 15 402 -104
734 -352 985 -221 224 -495 349 -865 395 -56 6 -644 10 -1737 10 l-1653 0 0
-415z"/>
<path d="M35380 8605 l0 -414 1633 -3 1632 -3 78 -22 c201 -57 333 -189 383
-384 23 -86 23 -254 1 -338 -53 -198 -190 -332 -398 -388 -58 -15 -169 -17
-1129 -23 -1160 -7 -1123 -5 -1350 -66 -510 -138 -803 -483 -875 -1032 -12
-92 -15 -258 -15 -893 l0 -779 2285 0 2285 0 0 415 0 415 -1890 0 -1890 0 0
354 c0 386 7 459 55 564 73 158 195 249 405 300 56 13 210 16 1135 22 1034 6
1073 7 1166 28 311 67 545 187 730 373 232 234 352 530 366 899 15 402 -104
734 -352 985 -221 224 -495 349 -865 395 -56 6 -644 10 -1737 10 l-1653 0 0
-415z"/>
</g>
</svg>
